<?xml version="1.0" standalone="no"?>
<!DOCTYPE svg PUBLIC "-//W3C//DTD SVG 20010904//EN"
 "http://www.w3.org/TR/2001/REC-SVG-20010904/DTD/svg10.dtd">
<svg version="1.0" xmlns="http://www.w3.org/2000/svg"
 width="700.000000pt" height="700.000000pt" viewBox="0 0 700.000000 700.000000"
 preserveAspectRatio="xMidYMid meet">
<metadata>
Created by potrace 1.11, written by Peter Selinger 2001-2013
</metadata>
<g transform="translate(0.000000,700.000000) scale(0.100000,-0.100000)"
fill="#000000" stroke="none">
<path d="M5788 5835 c-2 -1 -39 -5 -83 -8 -81 -6 -105 -9 -185 -27 -25 -6 -55
-12 -66 -14 -46 -9 -193 -59 -274 -93 -215 -93 -499 -267 -625 -386 -24 -22
-36 -27 -60 -22 -66 13 -192 36 -225 41 -19 2 -62 9 -95 14 -33 5 -85 12 -115
15 -30 3 -66 8 -80 10 -152 24 -796 24 -922 0 -9 -2 -43 -6 -75 -10 -71 -7
-290 -42 -347 -55 -22 -5 -56 -12 -75 -15 -19 -3 -37 -8 -41 -10 -4 -2 -21 -7
-39 -10 -28 -5 -38 0 -74 34 -76 72 -95 88 -154 134 -212 162 -443 274 -707
342 -142 36 -219 49 -310 49 l-58 1 -33 -80 c-40 -102 -73 -220 -91 -335 -3
-19 -8 -46 -11 -60 -3 -14 -6 -108 -8 -210 -4 -235 19 -389 80 -527 14 -31 25
-59 25 -64 0 -4 -16 -25 -36 -46 -49 -53 -170 -214 -185 -246 -7 -15 -15 -27
-19 -27 -12 0 -148 -274 -185 -374 -38 -102 -88 -285 -100 -366 -4 -25 -9 -54
-12 -65 -30 -147 -20 -676 17 -870 5 -27 12 -66 15 -85 31 -191 143 -488 243
-644 136 -212 322 -394 537 -526 100 -62 314 -163 420 -198 132 -45 348 -105
425 -118 14 -3 57 -11 95 -19 63 -12 119 -21 195 -30 55 -7 126 -17 145 -20
10 -2 62 -7 115 -11 52 -3 106 -8 120 -9 188 -23 880 -23 1148 0 193 16 337
32 384 40 9 2 38 7 65 11 26 3 57 8 68 11 11 2 54 10 95 18 198 37 383 91 604
177 72 27 238 114 315 165 272 176 462 389 595 666 68 141 110 265 151 442 40
172 59 388 59 680 1 221 -7 312 -39 475 -11 56 -13 67 -25 110 -73 276 -220
566 -404 800 -42 53 -64 90 -61 100 12 31 45 156 51 195 3 22 7 42 9 45 19 31
28 409 12 525 -19 138 -54 269 -117 441 -9 27 -40 50 -52 39z m-3063 -2350
c72 -3 153 -8 180 -10 359 -25 764 -24 1060 0 235 20 590 26 717 13 320 -35
583 -205 736 -476 39 -70 51 -99 83 -196 28 -86 34 -142 34 -341 0 -233 -9
-320 -50 -481 -93 -366 -322 -594 -707 -703 -113 -32 -135 -37 -268 -61 -128
-22 -187 -29 -395 -45 -193 -14 -834 -21 -1010 -11 -90 6 -226 16 -265 21 -19
3 -55 7 -80 10 -40 5 -180 28 -236 39 -12 2 -38 9 -58 14 -20 6 -36 8 -36 6 0
-3 -8 0 -18 5 -11 6 -31 12 -45 15 -47 8 -180 57 -265 97 -77 35 -200 105
-212 119 -3 3 -18 16 -35 28 -261 199 -401 523 -403 932 -1 331 105 573 358
813 141 135 295 199 510 213 52 4 96 7 97 8 4 3 189 -2 308 -9z"/>
<path d="M2274 2905 c-59 -17 -102 -52 -146 -119 -100 -154 -112 -385 -30
-560 32 -68 90 -134 143 -162 71 -37 187 -16 247 44 116 116 165 336 118 523
-52 202 -190 316 -332 274z"/>
<path d="M4620 2910 c-143 -40 -244 -218 -243 -430 1 -252 138 -447 306 -435
117 7 220 127 260 301 20 85 14 232 -12 315 -56 176 -189 283 -311 249z"/>
</g>
</svg>
